<svg width="32" height="32" viewBox="0 0 32 32" fill="none" xmlns="http://www.w3.org/2000/svg">
<path d="M16 2C13.2311 2 10.5243 2.82109 8.22202 4.35943C5.91973 5.89777 4.12532 8.08427 3.06569 10.6424C2.00607 13.2006 1.72882 16.0155 2.26901 18.7313C2.80921 21.447 4.14258 23.9416 6.10051 25.8995C8.05845 27.8574 10.553 29.1908 13.2687 29.731C15.9845 30.2712 18.7994 29.9939 21.3576 28.9343C23.9157 27.8747 26.1022 26.0803 27.6406 23.778C29.1789 21.4757 30 18.7689 30 16C30 12.287 28.525 8.72601 25.8995 6.1005C23.274 3.475 19.713 2 16 2ZM10 26.38V24.38C9.95609 23.5355 10.2461 22.7077 10.8074 22.0753C11.3687 21.4429 12.1563 21.0566 13 21H19C19.8455 21.0566 20.6347 21.4443 21.1962 22.0789C21.7578 22.7135 22.0466 23.5439 22 24.39V26.39C20.1785 27.4511 18.1081 28.0102 16 28.0102C13.8919 28.0102 11.8216 27.4511 10 26.39V26.38ZM24 24.92V24.31C24.0273 22.9466 23.5189 21.6269 22.5841 20.6342C21.6493 19.6414 20.3625 19.0547 19 19H13C11.6366 19.0522 10.3483 19.6381 9.41296 20.6314C8.47761 21.6248 7.97015 22.9459 8.00001 24.31V24.9C6.18857 23.2798 4.91177 21.1478 4.33856 18.786C3.76535 16.4243 3.92275 13.9442 4.78994 11.6739C5.65712 9.40354 7.19321 7.45004 9.19495 6.07184C11.1967 4.69365 13.5697 3.95573 16 3.95573C18.4303 3.95573 20.8033 4.69365 22.8051 6.07184C24.8068 7.45004 26.3429 9.40354 27.2101 11.6739C28.0773 13.9442 28.2347 16.4243 27.6615 18.786C27.0882 21.1478 25.8114 23.2798 24 24.9V24.92Z" fill="black"/>
<path d="M16 7C15.0111 7 14.0444 7.29324 13.2222 7.84265C12.3999 8.39206 11.759 9.17295 11.3806 10.0866C11.0022 11.0002 10.9031 12.0055 11.0961 12.9755C11.289 13.9454 11.7652 14.8363 12.4645 15.5355C13.1637 16.2348 14.0546 16.711 15.0246 16.9039C15.9945 17.0969 16.9998 16.9978 17.9134 16.6194C18.8271 16.241 19.6079 15.6001 20.1574 14.7779C20.7068 13.9556 21 12.9889 21 12C21 10.6739 20.4732 9.40215 19.5355 8.46447C18.5979 7.52678 17.3261 7 16 7ZM16 15C15.4067 15 14.8266 14.8241 14.3333 14.4944C13.8399 14.1648 13.4554 13.6962 13.2284 13.1481C13.0013 12.5999 12.9419 11.9967 13.0576 11.4147C13.1734 10.8328 13.4591 10.2982 13.8787 9.87868C14.2982 9.45912 14.8328 9.1734 15.4147 9.05764C15.9967 8.94189 16.5999 9.0013 17.1481 9.22836C17.6962 9.45542 18.1648 9.83994 18.4944 10.3333C18.8241 10.8266 19 11.4067 19 12C19 12.7956 18.6839 13.5587 18.1213 14.1213C17.5587 14.6839 16.7957 15 16 15Z" fill="black"/>
</svg>
