<svg width="28" height="28" viewBox="0 0 28 28" fill="none" xmlns="http://www.w3.org/2000/svg">
<path d="M27.6583 13.1752L24.7416 10.2585L14.8249 0.341691C14.3693 -0.113897 13.6308 -0.113897 13.1752 0.341691L3.25839 10.2585L0.341691 13.1752C-0.113897 13.6308 -0.113897 14.3693 0.341691 14.8249C0.569777 15.0529 0.867864 15.1667 1.16653 15.1667C1.4652 15.1667 1.76329 15.0529 1.99138 14.8249L2.91655 13.8997V26.8335C2.91655 27.4775 3.43923 28.0002 4.08323 28.0002H10.5C11.144 28.0002 11.6667 27.4775 11.6667 26.8335V17.5H16.3334V25.6668L16.3371 26.7049C16.3397 27.421 16.921 28.0002 17.6371 28.0002H23.9168C24.5608 28.0002 25.0835 27.4775 25.0835 26.8335V13.8997L26.0086 14.8249C26.2367 15.0529 26.5348 15.1667 26.8335 15.1667C27.1322 15.1667 27.4302 15.0529 27.6583 14.8249C28.1139 14.3693 28.1139 13.6308 27.6583 13.1752ZM22.7501 25.6668H18.6667V16.3334C18.6667 15.6894 18.1441 15.1667 17.5 15.1667H10.5C9.85596 15.1667 9.33329 15.6894 9.33329 16.3334V25.6668H5.24991V11.5669L14 2.8168L22.7501 11.5669V25.6668Z" fill="black"/>
</svg>
