<svg width="32" height="32" viewBox="0 0 32 32" fill="none" xmlns="http://www.w3.org/2000/svg">
<path d="M28.7 20.3L26 17.6V13C25.9968 10.5168 25.0761 8.12229 23.415 6.27652C21.7538 4.43075 19.4691 3.26386 17 3V1H15V3C12.5376 3.2807 10.2631 4.45259 8.60519 6.29469C6.9473 8.13679 6.02065 10.5218 5.99998 13V17.6L3.29998 20.3C3.20237 20.3881 3.12501 20.4963 3.07323 20.6171C3.02144 20.7379 2.99645 20.8686 2.99998 21V24C2.99114 24.1336 3.01094 24.2676 3.05807 24.3929C3.1052 24.5182 3.17856 24.632 3.27324 24.7267C3.36793 24.8214 3.48174 24.8948 3.60708 24.9419C3.73241 24.989 3.86637 25.0088 3.99998 25H11C11 26.3261 11.5268 27.5979 12.4644 28.5355C13.4021 29.4732 14.6739 30 16 30C17.3261 30 18.5978 29.4732 19.5355 28.5355C20.4732 27.5979 21 26.3261 21 25H28C28.1336 25.0088 28.2675 24.989 28.3929 24.9419C28.5182 24.8948 28.632 24.8214 28.7267 24.7267C28.8214 24.632 28.8947 24.5182 28.9419 24.3929C28.989 24.2676 29.0088 24.1336 29 24V21C29.0035 20.8686 28.9785 20.7379 28.9267 20.6171C28.8749 20.4963 28.7976 20.3881 28.7 20.3ZM16 28C15.2043 28 14.4413 27.6839 13.8787 27.1213C13.316 26.5587 13 25.7956 13 25H19C19 25.7956 18.6839 26.5587 18.1213 27.1213C17.5587 27.6839 16.7956 28 16 28ZM27 23H4.99998V21.4L7.69998 18.7C7.79758 18.6119 7.87494 18.5037 7.92672 18.3829C7.97851 18.2621 8.0035 18.1314 7.99998 18V13C7.99998 10.8783 8.84283 8.84344 10.3431 7.34315C11.8434 5.84285 13.8782 5 16 5C18.1217 5 20.1565 5.84285 21.6568 7.34315C23.1571 8.84344 24 10.8783 24 13V18C23.9964 18.1314 24.0214 18.2621 24.0732 18.3829C24.125 18.5037 24.2024 18.6119 24.3 18.7L27 21.4V23Z" fill="black"/>
</svg>
