<svg width="32" height="32" viewBox="0 0 32 32" fill="none" xmlns="http://www.w3.org/2000/svg">
<path d="M28.7001 20.3L26.0001 17.6V13C25.9969 10.5168 25.0763 8.12229 23.4151 6.27652C21.7539 4.43075 19.4693 3.26386 17.0001 3V1H15.0001V3C12.5378 3.2807 10.2632 4.45259 8.60531 6.29469C6.94742 8.13679 6.02077 10.5218 6.0001 13V17.6L3.3001 20.3C3.20249 20.3881 3.12514 20.4963 3.07335 20.6171C3.02156 20.7379 2.99657 20.8686 3.0001 21V24C2.99126 24.1336 3.01107 24.2676 3.05819 24.3929C3.10532 24.5182 3.17868 24.632 3.27337 24.7267C3.36805 24.8214 3.48187 24.8948 3.6072 24.9419C3.73253 24.989 3.86649 25.0088 4.0001 25H11.0001C11.0001 26.3261 11.5269 27.5979 12.4646 28.5355C13.4022 29.4732 14.674 30 16.0001 30C17.3262 30 18.5979 29.4732 19.5356 28.5355C20.4733 27.5979 21.0001 26.3261 21.0001 25H28.0001C28.1337 25.0088 28.2677 24.989 28.393 24.9419C28.5183 24.8948 28.6321 24.8214 28.7268 24.7267C28.8215 24.632 28.8949 24.5182 28.942 24.3929C28.9891 24.2676 29.0089 24.1336 29.0001 24V21C29.0036 20.8686 28.9786 20.7379 28.9268 20.6171C28.8751 20.4963 28.7977 20.3881 28.7001 20.3ZM16.0001 28C15.2044 28 14.4414 27.6839 13.8788 27.1213C13.3162 26.5587 13.0001 25.7956 13.0001 25H19.0001C19.0001 25.7956 18.684 26.5587 18.1214 27.1213C17.5588 27.6839 16.7957 28 16.0001 28ZM27.0001 23H5.0001V21.4L7.7001 18.7C7.7977 18.6119 7.87506 18.5037 7.92685 18.3829C7.97864 18.2621 8.00363 18.1314 8.0001 18V13C8.0001 10.8783 8.84295 8.84344 10.3432 7.34315C11.8435 5.84285 13.8784 5 16.0001 5C18.1218 5 20.1567 5.84285 21.657 7.34315C23.1572 8.84344 24.0001 10.8783 24.0001 13V18C23.9966 18.1314 24.0216 18.2621 24.0733 18.3829C24.1251 18.5037 24.2025 18.6119 24.3001 18.7L27.0001 21.4V23Z" fill="#A11A16"/>
</svg>
